<?xml version="1.0" encoding="UTF-8" standalone="no"?>
<!-- Created with Inkscape (http://www.inkscape.org/) -->

<svg
   xmlns:dc="http://purl.org/dc/elements/1.1/"
   xmlns:cc="http://creativecommons.org/ns#"
   xmlns:rdf="http://www.w3.org/1999/02/22-rdf-syntax-ns#"
   xmlns:svg="http://www.w3.org/2000/svg"
   xmlns="http://www.w3.org/2000/svg"
   xmlns:sodipodi="http://sodipodi.sourceforge.net/DTD/sodipodi-0.dtd"
   xmlns:inkscape="http://www.inkscape.org/namespaces/inkscape"
   width="142.7616mm"
   height="142.76161mm"
   viewBox="0 0 142.7616 142.76161"
   version="1.1"
   id="svg8"
   inkscape:version="0.92.3 (2405546, 2018-03-11)"
   sodipodi:docname="drawing.svg">
  <defs
     id="defs2" />
  <sodipodi:namedview
     id="base"
     pagecolor="#ffffff"
     bordercolor="#666666"
     borderopacity="1.0"
     inkscape:pageopacity="0.0"
     inkscape:pageshadow="2"
     inkscape:zoom="0.7"
     inkscape:cx="297.6429"
     inkscape:cy="104.78574"
     inkscape:document-units="mm"
     inkscape:current-layer="layer1"
     showgrid="false"
     inkscape:window-width="1920"
     inkscape:window-height="1009"
     inkscape:window-x="0"
     inkscape:window-y="34"
     inkscape:window-maximized="1" />
  <metadata
     id="metadata5">
    <rdf:RDF>
      <cc:Work
         rdf:about="">
        <dc:format>image/svg+xml</dc:format>
        <dc:type
           rdf:resource="http://purl.org/dc/dcmitype/StillImage" />
        <dc:title></dc:title>
      </cc:Work>
    </rdf:RDF>
  </metadata>
  <g
     inkscape:label="Layer 1"
     inkscape:groupmode="layer"
     id="layer1"
     transform="translate(-5.9153169,-6.5819917)">
    <text
       xml:space="preserve"
       style="font-style:normal;font-variant:normal;font-weight:normal;font-stretch:normal;font-size:12.69999981px;line-height:125%;font-family:FreeSerif;-inkscape-font-specification:FreeSerif;font-variant-ligatures:normal;font-variant-caps:normal;font-variant-numeric:normal;font-feature-settings:normal;text-align:center;letter-spacing:0px;word-spacing:0px;writing-mode:lr-tb;text-anchor:middle;fill:#000000;fill-opacity:1;stroke:none;stroke-width:0.26458332px;stroke-linecap:butt;stroke-linejoin:miter;stroke-opacity:1"
       x="-284.61609"
       y="116.70535"
       id="text82"><tspan
         sodipodi:role="line"
         id="tspan80"
         x="-284.61609"
         y="128.45285"
         style="stroke-width:0.26458332px"></tspan></text>
    <g
       id="g4652"
       transform="translate(241.90476,-35.151786)">
      <rect
         ry="9.7964439"
         y="41.838745"
         x="-235.88448"
         height="142.55168"
         width="142.55167"
         id="rect4612"
         style="fill:#ffffff;fill-rule:evenodd;stroke:#ffffff;stroke-width:0.20993476px;stroke-linecap:butt;stroke-linejoin:miter;stroke-opacity:1" />
      <g
         transform="translate(-53.672619,-24.190476)"
         id="g4639">
        <path
           inkscape:connector-curvature="0"
           style="fill:#f4bc00;stroke-width:0.28222221"
           d="m -65.996943,148.90391 c 0,0 15.769166,-3.61019 21.213515,5.92666 1.646485,2.16352 -2.963333,12.69944 -6.914444,14.15796 -0.846667,3.10445 -5.12572,11.86321 -8.043333,11.0538 0,0 -2.536049,-0.37056 -2.586849,-10.16 0,0 1.72974,13.39201 4.186484,6.20889 3.181491,-9.30317 2.62382,-24.10996 -2.116666,-25.87047 0,0 1.599071,-0.84666 4.750364,0 0,0 4.939453,3.48093 4.280747,16.46316 0,0 2.099168,-8.26686 -2.369538,-16.16908 0,0 2.040184,0.22352 3.686669,1.02306 -2.83e-4,0 -4.703798,-4.28047 -16.086949,-2.63398 z"
           id="path7160" />
        <path
           inkscape:connector-curvature="0"
           style="fill:#f4bc00;stroke-width:0.28222221"
           d="m -75.366156,149.04248 c 0,0 -15.769161,-3.61019 -21.213511,5.92666 -1.64649,2.16352 2.96333,12.7 6.91444,14.15796 0.84667,3.10445 5.12572,11.86378 8.04334,11.05408 0,0 2.536327,-0.37055 2.586845,-10.16 0,0 -1.72974,13.39229 -4.186485,6.20889 -3.18149,-9.30289 -2.62382,-24.11024 2.116667,-25.87046 0,0 -1.599067,-0.84667 -4.750367,0 0,0 -4.93945,3.48093 -4.28074,16.46287 0,0 -2.09917,-8.26657 2.36953,-16.16908 0,0 -2.04018,0.22352 -3.68667,1.02306 2.9e-4,0 4.7038,-4.28046 16.086951,-2.63398 z"
           id="path7162" />
        <path
           inkscape:connector-curvature="0"
           style="fill:#f4bc00;stroke-width:0.28222221"
           d="m -66.294687,141.24045 c 0.182315,1.71478 1.650435,2.61704 1.650435,2.61704 -1.453444,2.7432 -5.873891,3.05647 -5.873891,3.05647 0,0 -4.316871,-0.34064 -5.82676,-3.05308 0,0 1.448647,-0.93246 1.59512,-2.65091 0,0 -8.895644,-0.49559 -16.252324,7.91831 0,0 7.69535,-3.46174 20.534764,-0.2128 12.769991,-3.51423 20.585571,-0.0954 20.585571,-0.0954 -7.529689,-8.2598 -16.412915,-7.57964 -16.412915,-7.57964 z"
           id="path7419" />
        <path
           inkscape:connector-curvature="0"
           style="fill:#f4bc00;stroke-width:0.28222221"
           d="m -74.110832,140.70761 c 0,0 0.493607,-6.6088 3.222131,-12.93509 0,0 0.470182,-1.1526 0.893516,0 0.423333,1.15203 2.399453,6.8676 3.222413,12.93509 -2.82e-4,0 -3.595793,1.69051 -7.33806,0 z"
           id="path7779" />
        <path
           inkscape:connector-curvature="0"
           style="fill:#f4bc00;stroke-width:0.28222221"
           d="m -70.875719,152.99613 c -0.468206,-5.06589 -6.25602,-2.14094 -7.308426,-1.96399 -2.116946,0.3556 -2.969257,0.17639 -2.969257,0.17639 -0.893795,0.98778 -1.246295,1.7876 -1.246295,1.7876 0,0 9.395458,-1.36991 11.523978,0 z"
           id="path8703" />
        <path
           inkscape:connector-curvature="0"
           style="fill:#f4bc00;stroke-width:0.28222221"
           d="m -70.286156,152.99613 c 0.468489,-5.06589 6.256584,-2.14094 7.308426,-1.96399 2.116667,0.3556 2.96926,0.17639 2.96926,0.17639 0.893516,0.98778 1.246294,1.7876 1.246294,1.7876 0,0 -9.394896,-1.36991 -11.52398,0 z"
           id="path8705" />
        <path
           inkscape:connector-curvature="0"
           style="fill:#f4bc00;stroke-width:0.28222221"
           d="m -68.467799,152.99613 c 0,0 -0.576015,0.46595 -2.101991,0.47639 -1.525975,-0.0102 -2.101991,-0.47639 -2.101991,-0.47639 -5.268242,-0.43011 -10.809676,0.45409 -10.809676,0.45409 l 2.813195,15.20444 c 2.328333,1.41111 7.831663,1.69221 7.831663,1.69221 0.666045,0.90311 3.867574,0.90311 4.533618,0 0,0 5.503333,-0.2811 7.831667,-1.69221 l 2.530969,-15.20444 c -2.83e-4,2.9e-4 -5.259211,-0.8842 -10.527454,-0.45409 z m -12.179861,7.17522 5.395239,-5.94445 0.206869,3.05759 -1.10744,0.0116 -0.0079,-0.50885 -3.106135,3.53342 3.346306,4.38856 -0.08551,-3.93418 -1.146105,-0.0793 0.02145,-1.04732 2.110176,0.1318 0.202353,8.42405 z m 14.124937,8.03232 0.202353,-8.42433 2.110176,-0.13123 0.02145,1.04732 -1.146105,0.079 -0.0858,3.93418 3.346026,-4.38827 -3.106137,-3.53371 -0.0076,0.50913 -1.10744,-0.0116 0.206586,-3.05788 5.395242,5.94445 z"
           id="path9584" />
      </g>
      <text
         id="text86"
         y="178.31548"
         x="-165.93158"
         style="font-style:normal;font-variant:normal;font-weight:normal;font-stretch:normal;font-size:25.39999962px;line-height:125%;font-family:FreeSerif;-inkscape-font-specification:'FreeSerif, Normal';font-variant-ligatures:normal;font-variant-caps:normal;font-variant-numeric:normal;font-feature-settings:normal;text-align:center;letter-spacing:0px;word-spacing:0px;writing-mode:lr-tb;text-anchor:middle;fill:#000000;fill-opacity:1;stroke:none;stroke-width:0.26458332px;stroke-linecap:butt;stroke-linejoin:miter;stroke-opacity:1"
         xml:space="preserve"><tspan
           style="stroke-width:0.26458332px"
           y="178.31548"
           x="-165.93158"
           id="tspan84"
           sodipodi:role="line">GrimoireLab</tspan></text>
    </g>
  </g>
</svg>
